<?xml version="1.0" standalone="no"?>
<!DOCTYPE svg PUBLIC "-//W3C//DTD SVG 20010904//EN"
 "http://www.w3.org/TR/2001/REC-SVG-20010904/DTD/svg10.dtd">
<svg version="1.0" xmlns="http://www.w3.org/2000/svg"
 width="498.000000pt" height="501.000000pt" viewBox="0 0 498.000000 501.000000"
 preserveAspectRatio="xMidYMid meet">

<g transform="translate(0.000000,501.000000) scale(0.100000,-0.100000)"
fill="#000000" stroke="none">
<path d="M2473 4301 c-11 -17 -9 -21 10 -27 12 -5 27 -6 32 -4 6 1 28 6 50 10
37 7 37 8 9 9 -17 0 -37 8 -44 16 -17 21 -43 19 -57 -4z"/>
<path d="M2648 4273 c7 -3 16 -2 19 1 4 3 -2 6 -13 5 -11 0 -14 -3 -6 -6z"/>
<path d="M2728 4263 c6 -2 18 -2 25 0 6 3 1 5 -13 5 -14 0 -19 -2 -12 -5z"/>
<path d="M2818 4253 c7 -3 16 -2 19 1 4 3 -2 6 -13 5 -11 0 -14 -3 -6 -6z"/>
<path d="M2156 4237 c-9 -7 -18 -22 -19 -34 -1 -16 -7 -21 -22 -19 -11 2 -14
1 -7 -1 7 -3 9 -9 6 -15 -5 -7 -1 -7 12 0 12 6 25 7 36 1 22 -12 65 7 65 29 0
20 -25 52 -42 52 -6 0 -19 -6 -29 -13z"/>
<path d="M2893 4243 c9 -2 23 -2 30 0 6 3 -1 5 -18 5 -16 0 -22 -2 -12 -5z"/>
<path d="M3142 4235 c-15 -11 -32 -14 -58 -9 -27 5 -35 4 -30 -5 4 -6 22 -11
41 -11 25 0 35 -5 40 -20 3 -11 11 -20 16 -20 5 0 9 -8 10 -17 0 -11 3 -13 6
-5 2 7 13 17 23 22 16 8 42 -9 157 -103 76 -62 238 -192 360 -290 122 -98 228
-185 235 -194 12 -14 9 -15 -27 -9 -81 15 -98 15 -32 -1 49 -12 67 -20 67 -33
0 -9 5 -21 11 -27 7 -7 2 -41 -16 -113 -14 -56 -24 -104 -22 -107 3 -2 15 38
27 89 25 104 38 134 50 122 4 -5 45 -109 91 -231 45 -123 84 -221 86 -219 3 3
-59 176 -126 349 -25 64 4 15 104 -178 58 -113 108 -205 111 -205 5 0 -193
389 -228 447 -14 24 -18 42 -13 63 8 37 -8 60 -42 60 -18 0 -67 40 -181 146
-87 81 -159 156 -162 168 -4 13 -15 22 -30 24 -13 2 -44 17 -67 33 -24 17 -43
28 -43 25 0 -3 18 -18 41 -33 23 -15 45 -37 50 -50 5 -13 17 -23 26 -23 19 0
188 -149 179 -157 -3 -3 -52 34 -110 81 -58 47 -149 120 -201 162 -53 42 -94
79 -91 81 3 3 19 -5 35 -17 17 -12 31 -19 31 -16 0 3 -21 20 -47 37 -27 18
-42 25 -34 16 7 -9 9 -17 3 -17 -13 0 -33 25 -26 33 3 3 -28 28 -70 56 -47 32
-76 58 -76 69 0 20 -18 42 -35 42 -6 0 -20 -7 -33 -15z m683 -535 c10 -11 16
-20 13 -20 -3 0 -13 9 -23 20 -10 11 -16 20 -13 20 3 0 13 -9 23 -20z"/>
<path d="M2973 4233 c9 -2 23 -2 30 0 6 3 -1 5 -18 5 -16 0 -22 -2 -12 -5z"/>
<path d="M2268 4203 c12 -2 32 -2 45 0 12 2 2 4 -23 4 -25 0 -35 -2 -22 -4z"/>
<path d="M1988 4153 c7 -3 16 -2 19 1 4 3 -2 6 -13 5 -11 0 -14 -3 -6 -6z"/>
<path d="M2074 4144 c-18 -14 -18 -15 4 -4 12 6 22 13 22 15 0 8 -5 6 -26 -11z"/>
<path d="M2294 4146 c11 -9 24 -16 30 -16 12 0 7 5 -24 19 -24 11 -24 11 -6
-3z"/>
<path d="M1948 4143 c7 -3 16 -2 19 1 4 3 -2 6 -13 5 -11 0 -14 -3 -6 -6z"/>
<path d="M2161 4134 c0 -11 3 -14 6 -6 3 7 2 16 -1 19 -3 4 -6 -2 -5 -13z"/>
<path d="M1995 4099 c-27 -17 -54 -36 -60 -42 -11 -11 58 28 96 55 40 28 17
20 -36 -13z"/>
<path d="M2340 4125 c0 -2 27 -18 60 -35 33 -17 60 -28 60 -25 0 2 -27 18 -60
35 -33 17 -60 28 -60 25z"/>
<path d="M1775 4100 c-13 -5 -14 -9 -5 -9 8 0 24 4 35 9 13 5 14 9 5 9 -8 0
-24 -4 -35 -9z"/>
<path d="M2151 4084 c0 -11 3 -14 6 -6 3 7 2 16 -1 19 -3 4 -6 -2 -5 -13z"/>
<path d="M1728 4083 c7 -3 16 -2 19 1 4 3 -2 6 -13 5 -11 0 -14 -3 -6 -6z"/>
<path d="M1665 4070 c-13 -5 -14 -9 -5 -9 8 0 24 4 35 9 13 5 14 9 5 9 -8 0
-24 -4 -35 -9z"/>
<path d="M1618 4053 c7 -3 16 -2 19 1 4 3 -2 6 -13 5 -11 0 -14 -3 -6 -6z"/>
<path d="M2141 4044 c0 -11 3 -14 6 -6 3 7 2 16 -1 19 -3 4 -6 -2 -5 -13z"/>
<path d="M1894 4034 c-18 -14 -18 -15 4 -4 12 6 22 13 22 15 0 8 -5 6 -26 -11z"/>
<path d="M1548 4033 c7 -3 16 -2 19 1 4 3 -2 6 -13 5 -11 0 -14 -3 -6 -6z"/>
<path d="M1360 4015 c-12 -14 -11 -25 5 -70 4 -12 3 -15 -2 -8 -6 8 -111 -125
-322 -403 -250 -330 -318 -414 -336 -414 -48 0 -62 -62 -15 -65 40 -4 63 13
56 40 -5 20 25 54 224 247 126 123 230 227 230 233 0 5 -90 -80 -200 -190
-110 -110 -200 -196 -200 -192 0 12 552 739 557 733 2 -2 -5 -39 -17 -81 -12
-42 -19 -79 -17 -81 3 -3 8 8 11 23 28 116 48 163 67 163 11 0 24 11 31 25 8
18 24 29 55 37 24 6 42 13 39 15 -2 2 -23 -1 -46 -7 -30 -8 -46 -8 -53 -1 -16
16 -53 13 -67 -4z"/>
<path d="M1844 4004 c-18 -14 -18 -15 4 -4 12 6 22 13 22 15 0 8 -5 6 -26 -11z"/>
<path d="M2131 3994 c0 -11 3 -14 6 -6 3 7 2 16 -1 19 -3 4 -6 -2 -5 -13z"/>
<path d="M3132 3980 c0 -14 2 -19 5 -12 2 6 2 18 0 25 -3 6 -5 1 -5 -13z"/>
<path d="M1715 3929 c-55 -34 -104 -66 -110 -72 -5 -6 1 -4 15 4 14 9 64 39
113 68 48 29 87 54 87 57 0 6 1 7 -105 -57z"/>
<path d="M2121 3954 c0 -11 3 -14 6 -6 3 7 2 16 -1 19 -3 4 -6 -2 -5 -13z"/>
<path d="M2650 3966 c0 -2 7 -7 16 -10 8 -3 12 -2 9 4 -6 10 -25 14 -25 6z"/>
<path d="M3122 3920 c0 -14 2 -19 5 -12 2 6 2 18 0 25 -3 6 -5 1 -5 -13z"/>
<path d="M2111 3904 c0 -11 3 -14 6 -6 3 7 2 16 -1 19 -3 4 -6 -2 -5 -13z"/>
<path d="M2101 3864 c0 -11 3 -14 6 -6 3 7 2 16 -1 19 -3 4 -6 -2 -5 -13z"/>
<path d="M3112 3855 c0 -16 2 -22 5 -12 2 9 2 23 0 30 -3 6 -5 -1 -5 -18z"/>
<path d="M1564 3834 c-18 -14 -18 -15 4 -4 12 6 22 13 22 15 0 8 -5 6 -26 -11z"/>
<path d="M2910 3835 c0 -2 32 -21 70 -40 66 -33 86 -57 58 -68 -8 -4 -7 -6 3
-6 9 -1 22 -8 29 -16 7 -8 23 -15 35 -15 19 0 59 -49 206 -252 101 -139 240
-332 311 -430 85 -117 126 -181 122 -192 -4 -11 -20 -17 -48 -18 -41 -1 -41
-1 -5 -5 28 -3 38 -10 45 -31 9 -25 -10 -54 -281 -417 -254 -340 -344 -464
-293 -404 7 8 143 190 302 403 237 318 293 386 310 384 22 -3 17 22 147 -710
13 -70 25 -126 27 -124 5 6 -27 194 -91 548 -41 224 -50 290 -41 302 6 9 15
16 21 16 27 0 468 -172 484 -189 19 -20 17 -23 -61 -212 -44 -106 -78 -194
-76 -196 2 -2 11 15 20 38 9 23 45 107 79 188 51 121 62 142 68 121 7 -24 7
-24 8 5 1 17 10 38 21 48 11 9 20 23 20 31 0 15 -22 41 -39 48 -10 4 -44 254
-36 268 3 5 1 11 -5 15 -5 3 -10 15 -10 26 0 10 -4 19 -10 19 -5 0 -10 -13
-10 -30 0 -16 4 -30 8 -30 8 0 47 -249 40 -256 -2 -1 -26 55 -52 127 -27 71
-51 128 -53 125 -2 -2 18 -64 46 -137 39 -103 48 -137 40 -151 -7 -13 -16 -17
-27 -13 -15 6 -346 128 -424 157 -35 13 -62 66 -55 110 5 31 5 30 -5 -4 -8
-25 -17 -38 -29 -38 -11 0 -73 77 -175 218 -87 119 -228 314 -313 432 -86 118
-154 219 -152 225 15 40 12 58 -13 81 -14 14 -26 21 -26 16 0 -5 -11 -14 -25
-20 -22 -10 -35 -7 -95 23 -39 19 -70 33 -70 30z"/>
<path d="M2091 3814 c0 -11 3 -14 6 -6 3 7 2 16 -1 19 -3 4 -6 -2 -5 -13z"/>
<path d="M1430 3756 c-57 -36 -108 -62 -112 -60 -5 3 -6 17 -3 32 l5 27 -10
-25 c-6 -14 -20 -30 -33 -35 -14 -6 -23 -21 -25 -39 -2 -16 -13 -37 -25 -47
-12 -10 -17 -18 -11 -19 6 0 19 9 29 20 25 27 37 12 25 -30 -6 -19 -10 -42 -9
-50 1 -8 6 4 12 28 8 26 23 51 41 66 l30 23 145 -48 c80 -27 149 -48 154 -46
5 1 -58 24 -140 51 -133 43 -185 68 -172 80 2 2 50 32 107 66 56 34 102 63
102 66 0 6 1 7 -110 -60z"/>
<path d="M2082 3770 c0 -14 2 -19 5 -12 2 6 2 18 0 25 -3 6 -5 1 -5 -13z"/>
<path d="M2071 3724 c0 -11 3 -14 6 -6 3 7 2 16 -1 19 -3 4 -6 -2 -5 -13z"/>
<path d="M3168 3723 c7 -3 16 -2 19 1 4 3 -2 6 -13 5 -11 0 -14 -3 -6 -6z"/>
<path d="M2998 3713 c7 -3 16 -2 19 1 4 3 -2 6 -13 5 -11 0 -14 -3 -6 -6z"/>
<path d="M3208 3713 c6 -2 18 -2 25 0 6 3 1 5 -13 5 -14 0 -19 -2 -12 -5z"/>
<path d="M3258 3703 c6 -2 18 -2 25 0 6 3 1 5 -13 5 -14 0 -19 -2 -12 -5z"/>
<path d="M2062 3680 c0 -14 2 -19 5 -12 2 6 2 18 0 25 -3 6 -5 1 -5 -13z"/>
<path d="M2928 3693 c7 -3 16 -2 19 1 4 3 -2 6 -13 5 -11 0 -14 -3 -6 -6z"/>
<path d="M3308 3693 c7 -3 16 -2 19 1 4 3 -2 6 -13 5 -11 0 -14 -3 -6 -6z"/>
<path d="M3358 3683 c7 -3 16 -2 19 1 4 3 -2 6 -13 5 -11 0 -14 -3 -6 -6z"/>
<path d="M2830 3670 c-20 -6 -21 -8 -5 -8 11 0 29 3 40 8 25 11 -1 11 -35 0z"/>
<path d="M3071 3664 c0 -11 3 -14 6 -6 3 7 2 16 -1 19 -3 4 -6 -2 -5 -13z"/>
<path d="M3398 3673 c6 -2 18 -2 25 0 6 3 1 5 -13 5 -14 0 -19 -2 -12 -5z"/>
<path d="M3448 3663 c6 -2 18 -2 25 0 6 3 1 5 -13 5 -14 0 -19 -2 -12 -5z"/>
<path d="M2760 3650 c-18 -12 -2 -12 25 0 13 6 15 9 5 9 -8 0 -22 -4 -30 -9z"/>
<path d="M3498 3653 c6 -2 18 -2 25 0 6 3 1 5 -13 5 -14 0 -19 -2 -12 -5z"/>
<path d="M2051 3634 c0 -11 3 -14 6 -6 3 7 2 16 -1 19 -3 4 -6 -2 -5 -13z"/>
<path d="M3548 3643 c7 -3 16 -2 19 1 4 3 -2 6 -13 5 -11 0 -14 -3 -6 -6z"/>
<path d="M2718 3633 c7 -3 16 -2 19 1 4 3 -2 6 -13 5 -11 0 -14 -3 -6 -6z"/>
<path d="M3588 3633 c6 -2 18 -2 25 0 6 3 1 5 -13 5 -14 0 -19 -2 -12 -5z"/>
<path d="M3638 3623 c6 -2 18 -2 25 0 6 3 1 5 -13 5 -14 0 -19 -2 -12 -5z"/>
<path d="M3700 3610 c14 -4 34 -8 45 -8 16 0 15 2 -5 8 -14 4 -34 8 -45 8 -16
0 -15 -2 5 -8z"/>
<path d="M2041 3594 c0 -11 3 -14 6 -6 3 7 2 16 -1 19 -3 4 -6 -2 -5 -13z"/>
<path d="M3051 3594 c0 -11 3 -14 6 -6 3 7 2 16 -1 19 -3 4 -6 -2 -5 -13z"/>
<path d="M3778 3593 c6 -2 18 -2 25 0 6 3 1 5 -13 5 -14 0 -19 -2 -12 -5z"/>
<path d="M3036 3544 c-4 -14 -5 -28 -3 -31 3 -2 8 8 11 23 4 14 5 28 3 31 -3
2 -8 -8 -11 -23z"/>
<path d="M2031 3544 c0 -11 3 -14 6 -6 3 7 2 16 -1 19 -3 4 -6 -2 -5 -13z"/>
<path d="M2398 3543 c7 -3 16 -2 19 1 4 3 -2 6 -13 5 -11 0 -14 -3 -6 -6z"/>
<path d="M2328 3523 c7 -3 16 -2 19 1 4 3 -2 6 -13 5 -11 0 -14 -3 -6 -6z"/>
<path d="M2021 3505 c0 -11 -15 -28 -31 -37 -21 -12 -30 -25 -30 -42 0 -21
-21 -41 -112 -109 -62 -45 -247 -181 -411 -302 -358 -265 -324 -242 -336 -230
-8 8 70 358 153 689 3 10 1 15 -3 10 -4 -5 -40 -146 -80 -314 -97 -407 -88
-377 -113 -383 -17 -5 -40 11 -110 75 -48 44 -88 76 -87 72 0 -5 39 -43 85
-84 68 -59 84 -78 80 -95 -3 -12 1 -30 8 -41 12 -17 10 -27 -15 -83 -16 -35
-27 -66 -25 -68 2 -2 16 26 32 62 28 65 48 81 58 48 6 -21 87 -391 110 -503 8
-41 31 -144 51 -228 41 -178 41 -183 16 -201 -23 -17 -17 -45 16 -71 22 -17
27 -18 46 -6 20 13 43 2 297 -141 151 -85 335 -189 408 -230 90 -51 132 -79
132 -91 0 -14 -29 -27 -137 -59 -322 -97 -513 -157 -509 -160 3 -4 287 79 525
154 110 34 116 35 143 19 15 -10 32 -14 38 -11 5 3 62 -102 126 -235 65 -132
119 -239 121 -237 2 2 -49 111 -113 242 -99 204 -114 240 -102 252 21 20 881
-123 886 -148 2 -11 -35 -43 -115 -100 -65 -46 -194 -137 -288 -203 -133 -94
-176 -119 -198 -118 -16 2 -35 -2 -42 -8 -10 -8 -55 4 -170 45 -87 31 -159 54
-161 52 -3 -2 51 -23 118 -47 154 -53 169 -61 98 -55 -50 4 -52 4 -15 -5 22
-5 54 -9 71 -9 23 -1 37 -8 48 -27 21 -31 57 -29 71 3 5 13 13 23 18 23 4 0 6
4 2 9 -3 5 123 100 280 211 258 182 289 201 316 195 19 -4 38 -2 52 8 20 13
37 9 190 -40 92 -29 167 -58 167 -64 0 -5 -10 -14 -22 -20 -21 -9 -21 -9 4 -4
15 3 30 1 33 -5 3 -5 19 -10 35 -10 23 0 31 5 36 24 3 14 3 30 -1 36 -6 9 73
120 248 348 5 6 7 12 4 12 -3 0 -58 -70 -123 -155 -64 -85 -119 -153 -121
-151 -2 2 26 70 62 152 36 81 64 151 63 156 -2 5 -21 -33 -42 -83 -93 -220
-111 -253 -147 -266 -31 -12 -48 -8 -199 42 -219 72 -218 63 -26 221 80 65
143 120 141 122 -2 3 -69 -50 -148 -116 -157 -131 -182 -141 -190 -78 l-4 31
-2 -30 c-1 -19 -11 -37 -28 -49 -25 -19 -28 -18 -402 44 -207 34 -402 67 -434
72 -47 8 -58 14 -55 28 2 10 84 80 183 156 99 75 216 165 260 199 357 274 369
283 393 272 17 -8 22 -19 23 -46 1 -66 57 -647 58 -606 0 22 -11 166 -24 320
-15 162 -23 302 -19 333 7 54 0 68 -16 30 -6 -16 -9 -18 -9 -7 -1 9 6 22 14
29 19 15 20 34 2 27 -10 -4 -19 16 -31 70 -10 41 -20 72 -23 70 -2 -3 3 -31
11 -63 26 -100 26 -100 -255 0 -133 47 -244 85 -246 83 -2 -2 101 -41 229 -87
128 -46 239 -85 246 -88 7 -2 12 -15 10 -27 -3 -22 -44 -55 -721 -573 -96 -73
-97 -74 -122 -58 -14 9 -25 12 -25 7 0 -5 -9 -13 -20 -16 -15 -5 -53 12 -133
58 -62 35 -244 138 -405 228 -287 161 -293 165 -290 193 3 26 45 64 308 278
274 223 308 248 333 242 19 -4 34 -1 46 10 17 15 36 10 271 -74 139 -50 254
-89 256 -87 3 2 -109 45 -248 94 -312 111 -306 104 -157 208 55 39 106 77 112
85 7 8 -17 -7 -53 -33 -164 -118 -167 -119 -190 -107 -33 18 -72 -12 -68 -51
3 -26 -11 -39 -162 -162 -91 -73 -230 -186 -309 -250 -142 -116 -163 -126
-193 -98 -3 3 -23 80 -42 171 -20 91 -65 296 -100 455 -61 279 -65 315 -36
315 5 0 187 -88 406 -195 218 -107 399 -194 401 -192 2 2 -176 92 -396 199
-327 161 -399 200 -404 220 -4 15 -1 29 11 39 9 9 199 150 421 314 373 274
406 296 428 286 18 -8 30 -8 46 1 12 7 24 12 27 11 14 -4 3 53 -12 65 -9 7
-19 25 -21 40 -3 17 -5 20 -6 7z"/>
<path d="M2258 3503 c7 -3 16 -2 19 1 4 3 -2 6 -13 5 -11 0 -14 -3 -6 -6z"/>
<path d="M3016 3474 c-4 -14 -5 -28 -3 -31 3 -2 8 8 11 23 4 14 5 28 3 31 -3
2 -8 -8 -11 -23z"/>
<path d="M2188 3483 c7 -3 16 -2 19 1 4 3 -2 6 -13 5 -11 0 -14 -3 -6 -6z"/>
<path d="M2118 3463 c7 -3 16 -2 19 1 4 3 -2 6 -13 5 -11 0 -14 -3 -6 -6z"/>
<path d="M3001 3414 c0 -11 3 -14 6 -6 3 7 2 16 -1 19 -3 4 -6 -2 -5 -13z"/>
<path d="M2099 3372 c14 -11 38 -27 55 -37 l31 -17 -24 20 c-14 11 -38 27 -55
37 l-31 17 24 -20z"/>
<path d="M2981 3344 c0 -11 3 -14 6 -6 3 7 2 16 -1 19 -3 4 -6 -2 -5 -13z"/>
<path d="M2966 3294 c-4 -14 -5 -28 -3 -31 3 -2 8 8 11 23 4 14 5 28 3 31 -3
2 -8 -8 -11 -23z"/>
<path d="M2220 3297 c0 -4 20 -18 103 -71 15 -10 27 -16 27 -13 0 4 -20 18
-102 71 -16 10 -28 16 -28 13z"/>
<path d="M3896 3214 c-9 -37 -15 -68 -13 -71 3 -2 12 26 21 63 9 37 15 68 13
71 -3 2 -12 -26 -21 -63z"/>
<path d="M2946 3224 c-4 -14 -5 -28 -3 -31 3 -2 8 8 11 23 4 14 5 28 3 31 -3
2 -8 -8 -11 -23z"/>
<path d="M2360 3207 c0 -3 99 -69 220 -147 290 -187 289 -159 15 -354 -113
-81 -205 -149 -205 -152 0 -6 11 1 244 169 127 91 182 125 189 118 6 -6 19
-11 28 -11 10 0 20 -8 22 -17 4 -17 5 -17 6 0 0 10 10 28 21 39 21 23 19 50
-7 79 -8 10 -12 28 -9 45 6 29 6 29 -5 -2 -8 -21 -20 -33 -42 -40 -30 -8 -45
-1 -242 126 -248 161 -235 152 -235 147z"/>
<path d="M2930 3174 c0 -5 -9 -40 -20 -79 -20 -71 -24 -92 -16 -84 9 9 47 162
41 167 -3 3 -5 1 -5 -4z"/>
<path d="M3851 3044 c-12 -48 -20 -88 -18 -90 2 -3 14 34 27 81 12 48 20 88
17 91 -2 3 -14 -34 -26 -82z"/>
<path d="M4200 2971 c0 -5 5 -13 10 -16 6 -3 10 -2 10 4 0 5 -4 13 -10 16 -5
3 -10 2 -10 -4z"/>
<path d="M3821 2924 c0 -11 3 -14 6 -6 3 7 2 16 -1 19 -3 4 -6 -2 -5 -13z"/>
<path d="M687 2888 c-3 -18 -8 -96 -11 -173 -5 -139 -5 -139 4 -35 5 58 11
119 13 135 2 17 4 -152 4 -375 0 -233 -3 -392 -8 -375 -5 20 -6 7 -3 -37 4
-54 2 -71 -10 -84 -9 -8 -16 -22 -16 -29 0 -19 28 -45 49 -45 11 0 31 -29 61
-91 25 -50 49 -93 53 -96 5 -3 -6 23 -23 57 -17 34 -30 64 -28 65 5 5 586
-779 582 -784 -4 -4 -130 109 -250 225 -75 72 -90 94 -174 251 -51 95 -94 173
-96 173 -5 0 37 -84 115 -228 51 -94 59 -117 50 -133 -15 -29 6 -52 42 -44 15
3 30 2 33 -4 4 -6 72 -70 152 -142 96 -87 143 -136 140 -146 -3 -8 -1 -24 5
-35 8 -15 18 -19 42 -15 28 4 56 -12 214 -120 100 -68 183 -132 185 -141 3
-14 15 -17 63 -18 33 0 87 -3 120 -6 36 -4 23 0 -32 9 -75 13 -92 20 -97 36
-4 15 -11 18 -32 14 -22 -4 -57 15 -190 106 -157 106 -190 134 -124 107 17 -7
33 -10 36 -7 3 3 -19 13 -50 23 -31 10 -56 21 -56 25 0 4 12 12 28 18 25 10
25 11 2 7 -26 -5 -62 17 -73 44 -4 12 -6 11 -6 -2 -1 -28 -16 -21 -44 20 -13
20 -160 219 -326 442 -179 240 -296 406 -288 408 7 1 118 -34 246 -78 128 -45
235 -79 237 -77 3 3 -369 136 -451 161 -11 3 -26 19 -33 36 -13 28 -8 42 117
322 72 160 129 293 127 295 -2 2 -61 -126 -131 -284 -71 -159 -132 -292 -137
-298 -4 -5 -8 208 -8 473 0 436 -6 550 -23 450z"/>
<path d="M2948 2873 c12 -2 30 -2 40 0 9 3 -1 5 -23 4 -22 0 -30 -2 -17 -4z"/>
<path d="M3038 2863 c12 -2 30 -2 40 0 9 3 -1 5 -23 4 -22 0 -30 -2 -17 -4z"/>
<path d="M3128 2853 c12 -2 32 -2 45 0 12 2 2 4 -23 4 -25 0 -35 -2 -22 -4z"/>
<path d="M3218 2843 c12 -2 32 -2 45 0 12 2 2 4 -23 4 -25 0 -35 -2 -22 -4z"/>
<path d="M3340 2830 c30 -5 73 -8 95 -8 35 1 33 2 -15 8 -30 5 -73 8 -95 8
-35 -1 -33 -2 15 -8z"/>
<path d="M3498 2813 c12 -2 32 -2 45 0 12 2 2 4 -23 4 -25 0 -35 -2 -22 -4z"/>
<path d="M3588 2803 c12 -2 32 -2 45 0 12 2 2 4 -23 4 -25 0 -35 -2 -22 -4z"/>
<path d="M2880 2786 c0 -13 181 -711 186 -715 9 -10 0 27 -87 364 -82 314 -99
376 -99 351z"/>
<path d="M2002 2570 c0 -14 2 -19 5 -12 2 6 2 18 0 25 -3 6 -5 1 -5 -13z"/>
<path d="M663 2495 c0 -38 2 -53 4 -32 2 20 2 52 0 70 -2 17 -4 1 -4 -38z"/>
<path d="M2344 2524 c-18 -14 -18 -15 4 -4 12 6 22 13 22 15 0 8 -5 6 -26 -11z"/>
<path d="M2012 2505 c0 -16 2 -22 5 -12 2 9 2 23 0 30 -3 6 -5 -1 -5 -18z"/>
<path d="M4326 2153 c-15 -251 -22 -323 -33 -327 -7 -3 -17 -15 -22 -27 -6
-18 -30 -29 -122 -55 -92 -27 -116 -31 -127 -20 -10 10 4 51 73 216 47 112 83
205 81 207 -1 2 -29 -59 -61 -134 -31 -76 -69 -167 -84 -202 -15 -36 -32 -66
-38 -68 -6 -2 -16 18 -21 44 l-11 48 5 -46 c4 -36 1 -49 -15 -63 -19 -17 -28
-16 -228 29 -195 44 -248 56 -381 85 -29 7 -56 9 -59 6 -4 -3 -2 -6 3 -6 35 0
640 -143 646 -153 4 -7 8 -16 7 -22 0 -5 -48 -49 -107 -98 -59 -48 -125 -103
-147 -123 l-40 -36 50 38 c28 21 88 70 135 109 114 95 120 99 125 93 3 -3 -11
-40 -31 -84 -52 -115 -64 -145 -55 -140 4 3 27 51 51 107 24 55 51 103 60 106
30 9 45 20 57 44 10 18 34 30 120 55 106 31 133 34 115 11 -5 -7 -73 -97 -151
-200 -79 -104 -141 -190 -139 -192 2 -2 71 86 153 195 92 123 155 197 163 195
22 -8 52 14 52 37 0 12 -7 29 -16 39 -15 17 -15 41 1 306 9 158 15 302 13 318
-1 17 -12 -115 -22 -292z"/>
<path d="M652 2377 c-1 -20 -7 -46 -14 -57 -9 -15 -9 -24 1 -43 13 -24 14 -24
32 -6 23 23 24 45 5 56 -8 4 -16 26 -19 48 l-4 40 -1 -38z"/>
<path d="M662 2210 c0 -19 2 -27 5 -17 2 9 2 25 0 35 -3 9 -5 1 -5 -18z"/>
<path d="M2021 2215 c-1 -12 74 -423 94 -515 29 -131 5 28 -41 270 -43 227
-51 267 -53 245z"/>
<path d="M672 2130 c0 -19 2 -27 5 -17 2 9 2 25 0 35 -3 9 -5 1 -5 -18z"/>
<path d="M3150 1888 c0 -16 4 -28 9 -28 18 0 20 17 6 36 -14 18 -14 18 -15 -8z"/>
<path d="M3952 1860 c0 -14 2 -19 5 -12 2 6 2 18 0 25 -3 6 -5 1 -5 -13z"/>
<path d="M3210 1860 c14 -4 34 -8 45 -8 16 0 15 2 -5 8 -14 4 -34 8 -45 8 -16
0 -15 -2 5 -8z"/>
<path d="M1312 1610 c0 -19 2 -27 5 -17 2 9 2 25 0 35 -3 9 -5 1 -5 -18z"/>
<path d="M2132 1610 c0 -14 2 -19 5 -12 2 6 2 18 0 25 -3 6 -5 1 -5 -13z"/>
<path d="M2142 1560 c0 -14 2 -19 5 -12 2 6 2 18 0 25 -3 6 -5 1 -5 -13z"/>
<path d="M1322 1540 c0 -19 2 -27 5 -17 2 9 2 25 0 35 -3 9 -5 1 -5 -18z"/>
<path d="M2152 1505 c0 -16 2 -22 5 -12 2 9 2 23 0 30 -3 6 -5 -1 -5 -18z"/>
<path d="M1332 1470 c0 -19 2 -27 5 -17 2 9 2 25 0 35 -3 9 -5 1 -5 -18z"/>
<path d="M2162 1450 c0 -14 2 -19 5 -12 2 6 2 18 0 25 -3 6 -5 1 -5 -13z"/>
<path d="M1342 1400 c0 -19 2 -27 5 -17 2 9 2 25 0 35 -3 9 -5 1 -5 -18z"/>
<path d="M2172 1400 c0 -14 2 -19 5 -12 2 6 2 18 0 25 -3 6 -5 1 -5 -13z"/>
<path d="M3836 1374 c-4 -9 -4 -19 -1 -22 2 -3 7 3 11 12 4 9 4 19 1 22 -2 3
-7 -3 -11 -12z"/>
<path d="M2182 1350 c0 -14 2 -19 5 -12 2 6 2 18 0 25 -3 6 -5 1 -5 -13z"/>
<path d="M1352 1330 c0 -19 2 -27 5 -17 2 9 2 25 0 35 -3 9 -5 1 -5 -18z"/>
<path d="M2192 1295 c0 -16 2 -22 5 -12 2 9 2 23 0 30 -3 6 -5 -1 -5 -18z"/>
<path d="M1362 1265 c-1 -16 5 -61 13 -100 l14 -70 -6 66 c-3 37 -9 82 -13
100 l-8 34 0 -30z"/>
<path d="M1392 1065 c0 -16 2 -22 5 -12 2 9 2 23 0 30 -3 6 -5 -1 -5 -18z"/>
<path d="M1570 897 c0 -7 122 -48 127 -43 3 2 -20 12 -49 21 -29 10 -59 20
-65 23 -7 2 -13 2 -13 -1z"/>
<path d="M3340 808 c-91 -27 -169 -53 -174 -58 -5 -5 11 -3 35 4 24 8 107 33
184 56 77 23 142 44 144 46 11 10 -38 -2 -189 -48z"/>
<path d="M1711 847 c3 -4 39 -18 80 -32 40 -14 69 -21 64 -16 -6 5 -35 17 -65
26 -30 10 -62 20 -70 23 -8 3 -12 2 -9 -1z"/>
<path d="M1895 782 c6 -5 60 -26 120 -47 145 -50 141 -49 134 -42 -3 4 -63 27
-135 52 -71 26 -124 42 -119 37z"/>
<path d="M2994 706 c-78 -23 -146 -40 -153 -38 -6 2 -22 -2 -34 -10 -12 -8
-66 -27 -119 -43 -54 -16 -95 -31 -93 -33 2 -2 47 8 100 23 72 21 99 25 108
16 19 -19 47 -12 57 13 9 24 29 32 205 81 33 10 64 21 70 26 11 11 24 14 -141
-35z"/>
<path d="M2470 651 c0 -5 5 -13 10 -16 6 -3 10 -2 10 4 0 5 -4 13 -10 16 -5 3
-10 2 -10 -4z"/>
<path d="M2095 619 c22 -4 51 -8 65 -7 16 0 11 3 -15 9 -22 4 -51 8 -65 7 -16
0 -11 -3 15 -9z"/>
<path d="M2203 603 c9 -2 25 -2 35 0 9 3 1 5 -18 5 -19 0 -27 -2 -17 -5z"/>
<path d="M2273 593 c9 -2 23 -2 30 0 6 3 -1 5 -18 5 -16 0 -22 -2 -12 -5z"/>
</g>
</svg>
